<?xml version="1.0" standalone="no"?>
 <!DOCTYPE svg PUBLIC "-//W3C//DTD SVG 1.1//EN" 
 "http://www.w3.org/Graphics/SVG/1.1/DTD/svg11.dtd"> 
<svg
  xmlns:svg="http://www.w3.org/2000/svg"
  xmlns="http://www.w3.org/2000/svg"
  xmlns:xlink="http://www.w3.org/1999/xlink"
  version="1.1"
  width="29.700220cm" height="21.000720cm" viewBox="0 0 116930 82680">
<title>SVG Picture created as try4-F_SilkS.svg date 2021/09/14 22:53:23 </title>
  <desc>Picture generated by PCBNEW </desc>
<g style="fill:#000000; fill-opacity:1;stroke:#000000; stroke-opacity:1;
stroke-linecap:round; stroke-linejoin:round;"
 transform="translate(0 0) scale(1 1)">
</g>
<g style="fill:#000000; fill-opacity:0.0; 
stroke:#000000; stroke-width:-0.000393701; stroke-opacity:1; 
stroke-linecap:round; stroke-linejoin:round;">
</g>
<g style="fill:#000000; fill-opacity:0.0; 
stroke:#000000; stroke-width:78.7402; stroke-opacity:1; 
stroke-linecap:round; stroke-linejoin:round;">
<path d="M76990.6 25000 A196.85 196.85 0.0 0 0 77187.5 25196.9" />
<path d="M77281 25196
L77187 25196
" />
<path d="M77477.9 25393.7 A196.85 196.85 0.0 0 0 77281 25196.9" />
<path d="M80332.2 25196.9 A196.85 196.85 0.0 0 0 80135.3 25393.7" />
<path d="M82501 19881.9 A196.85 196.85 0.0 0 0 82304.1 19685" />
<path d="M35937 19684.1 A196.85 196.85 0.0 0 0 35740.2 19880.9" />
<path d="M40962 25196
L41055 25196
" />
<path d="M40962.1 25196.9 A196.85 196.85 0.0 0 0 40765.3 25393.7" />
<path d="M38107.8 25393.7 A196.85 196.85 0.0 0 0 37910.9 25196.9" />
<path d="M61877.5 19881.9 A196.85 196.85 0.0 0 0 62074.3 20078.7" />
<path d="M60592.8 25393.7 A196.85 196.85 0.0 0 0 60396 25196.9" />
<path d="M56909.6 25196.9 A196.85 196.85 0.0 0 0 56712.8 25393.7" />
<path d="M56168.8 20078.7 A196.85 196.85 0.0 0 0 56365.6 19881.9" />
<path d="M63053.4 25590.6 A196.85 196.85 0.0 0 0 63250.3 25393.7" />
<path d="M60789 25590
L63053 25590
" />
<path d="M60592.8 25393.7 A196.85 196.85 0.0 0 0 60789.7 25590.6" />
<path d="M56909 25196
L60395 25196
" />
<path d="M84490.6 25000 A196.85 196.85 0.0 0 0 84687.5 25196.9" />
<path d="M84490 19881
L84490 25000
" />
<path d="M84687.5 19685 A196.85 196.85 0.0 0 0 84490.6 19881.9" />
<path d="M90743 19685
L84687 19685
" />
<path d="M90940 19881.9 A196.85 196.85 0.0 0 0 90743.1 19685" />
<path d="M90939 25000
L90939 19881
" />
<path d="M90743.1 25196.9 A196.85 196.85 0.0 0 0 90940 25000" />
<path d="M84687 25196
L90743 25196
" />
<path d="M63447.1 25196.9 A196.85 196.85 0.0 0 0 63250.3 25393.7" />
<path d="M64062.5 19685 A196.85 196.85 0.0 0 0 63865.6 19881.9" />
<path d="M69180 19685
L64062 19685
" />
<path d="M26472 26102
L26472 18996
" />
<path d="M26275.9 26299.2 A196.85 196.85 0.0 0 0 26472.7 26102.4" />
<path d="M21926 26299
L26275 26299
" />
<path d="M21926.7 26299.2 A196.85 196.85 0.0 0 0 21729.8 26496.1" />
<path d="M21729 48385
L21729 26496
" />
<path d="M21729.8 48385.8 A196.85 196.85 0.0 0 0 21926.7 48582.7" />
<path d="M96316 48582
L21926 48582
" />
<path d="M96316.4 48582.7 A196.85 196.85 0.0 0 0 96513.3 48385.8" />
<path d="M96513 26496
L96513 48385
" />
<path d="M72650.3 20275.6 A196.85 196.85 0.0 0 0 72453.4 20078.7" />
<path d="M72650 25393
L72650 20275
" />
<path d="M47115.9 25590.6 A196.85 196.85 0.0 0 0 47312.8 25393.7" />
<path d="M44852 25590
L47115 25590
" />
<path d="M44655.3 25393.7 A196.85 196.85 0.0 0 0 44852.2 25590.6" />
<path d="M44655 20275
L44655 25393
" />
<path d="M63447 25196
L69795 25196
" />
<path d="M48125 19685 A196.85 196.85 0.0 0 0 47928.1 19881.9" />
<path d="M53243 19685
L48125 19685
" />
<path d="M53440 19881.9 A196.85 196.85 0.0 0 0 53243.1 19685" />
<path d="M54055.3 25393.7 A196.85 196.85 0.0 0 0 53858.5 25196.9" />
<path d="M69377.5 19881.9 A196.85 196.85 0.0 0 0 69180.6 19685" />
<path d="M69992.8 25393.7 A196.85 196.85 0.0 0 0 69796 25196.9" />
<path d="M69992.8 25393.7 A196.85 196.85 0.0 0 0 70189.7 25590.6" />
<path d="M69377.5 19881.9 A196.85 196.85 0.0 0 0 69574.3 20078.7" />
<path d="M72453 20078
L69574 20078
" />
<path d="M44852.2 20078.7 A196.85 196.85 0.0 0 0 44655.3 20275.6" />
<path d="M47731 20078
L44852 20078
" />
<path d="M47731.3 20078.7 A196.85 196.85 0.0 0 0 47928.1 19881.9" />
<path d="M82305.6 25196.9 A196.85 196.85 0.0 0 0 82502.5 25000" />
<path d="M80332 25196
L82305 25196
" />
<path d="M47509 25196
L53858 25196
" />
<path d="M47509.6 25196.9 A196.85 196.85 0.0 0 0 47312.8 25393.7" />
<path d="M72453.4 25590.6 A196.85 196.85 0.0 0 0 72650.3 25393.7" />
<path d="M70189 25590
L72453 25590
" />
<path d="M77477.9 25393.7 A196.85 196.85 0.0 0 0 77674.7 25590.6" />
<path d="M76990 19881
L76990 25000
" />
<path d="M77187.5 19685 A196.85 196.85 0.0 0 0 76990.6 19881.9" />
<path d="M82304 19685
L77187 19685
" />
<path d="M82502 25000
L82500 19881
" />
<path d="M26669.6 18799.2 A196.85 196.85 0.0 0 0 26472.7 18996.1" />
<circle cx="83496.6" cy="19570.9" r="511.811" /> 
<path d="M52615.6 32500 A196.85 196.85 0.0 0 0 52812.5 32696.9" />
<path d="M52615 27381
L52615 32500
" />
<path d="M52812.5 27185 A196.85 196.85 0.0 0 0 52615.6 27381.9" />
<path d="M57930 27185
L52812 27185
" />
<path d="M58127.5 27381.9 A196.85 196.85 0.0 0 0 57930.6 27185" />
<path d="M58127 32500
L58127 27381
" />
<path d="M57930.6 32696.9 A196.85 196.85 0.0 0 0 58127.5 32500" />
<path d="M52812 32696
L57930 32696
" />
<path d="M82615.6 32500 A196.85 196.85 0.0 0 0 82812.5 32696.9" />
<path d="M82615 27381
L82615 32500
" />
<path d="M82812.5 27185 A196.85 196.85 0.0 0 0 82615.6 27381.9" />
<path d="M87930 27185
L82812 27185
" />
<path d="M88127.5 27381.9 A196.85 196.85 0.0 0 0 87930.6 27185" />
<path d="M88127 32500
L88127 27381
" />
<path d="M87930.6 32696.9 A196.85 196.85 0.0 0 0 88127.5 32500" />
<path d="M82812 32696
L87930 32696
" />
<circle cx="36621.6" cy="47696.9" r="511.811" /> 
<path d="M45312.5 42185 A196.85 196.85 0.0 0 0 45115.6 42381.9" />
<path d="M50430 42185
L45312 42185
" />
<path d="M50627.5 42381.9 A196.85 196.85 0.0 0 0 50430.6 42185" />
<path d="M50627 47500
L50627 42381
" />
<path d="M50430.6 47696.9 A196.85 196.85 0.0 0 0 50627.5 47500" />
<path d="M45312 47696
L50430 47696
" />
<path d="M45115.6 47500 A196.85 196.85 0.0 0 0 45312.5 47696.9" />
<path d="M45115 42381
L45115 47500
" />
<path d="M67812.5 34685 A196.85 196.85 0.0 0 0 67615.6 34881.9" />
<path d="M72930 34685
L67812 34685
" />
<path d="M73127.5 34881.9 A196.85 196.85 0.0 0 0 72930.6 34685" />
<path d="M73127 40000
L73127 34881
" />
<path d="M72930.6 40196.9 A196.85 196.85 0.0 0 0 73127.5 40000" />
<path d="M67812 40196
L72930 40196
" />
<path d="M67615.6 40000 A196.85 196.85 0.0 0 0 67812.5 40196.9" />
<path d="M67615 34881
L67615 40000
" />
<path d="M42930.6 47696.9 A196.85 196.85 0.0 0 0 43127.5 47500" />
<path d="M37812 47696
L42930 47696
" />
<path d="M37615.6 47500 A196.85 196.85 0.0 0 0 37812.5 47696.9" />
<path d="M37615 42381
L37615 47500
" />
<path d="M37812.5 42185 A196.85 196.85 0.0 0 0 37615.6 42381.9" />
<path d="M42930 42185
L37812 42185
" />
<path d="M43127.5 42381.9 A196.85 196.85 0.0 0 0 42930.6 42185" />
<path d="M43127 47500
L43127 42381
" />
<path d="M37812.5 34685 A196.85 196.85 0.0 0 0 37615.6 34881.9" />
<path d="M42930 34685
L37812 34685
" />
<path d="M43127.5 34881.9 A196.85 196.85 0.0 0 0 42930.6 34685" />
<path d="M43127 40000
L43127 34881
" />
<path d="M42930.6 40196.9 A196.85 196.85 0.0 0 0 43127.5 40000" />
<path d="M37812 40196
L42930 40196
" />
<path d="M37615.6 40000 A196.85 196.85 0.0 0 0 37812.5 40196.9" />
<path d="M37615 34881
L37615 40000
" />
<path d="M37812.5 27185 A196.85 196.85 0.0 0 0 37615.6 27381.9" />
<path d="M42930 27185
L37812 27185
" />
<path d="M43127.5 27381.9 A196.85 196.85 0.0 0 0 42930.6 27185" />
<path d="M43127 32500
L43127 27381
" />
<path d="M42930.6 32696.9 A196.85 196.85 0.0 0 0 43127.5 32500" />
<path d="M37812 32696
L42930 32696
" />
<path d="M37615.6 32500 A196.85 196.85 0.0 0 0 37812.5 32696.9" />
<path d="M37615 27381
L37615 32500
" />
<path d="M22812.5 42185 A196.85 196.85 0.0 0 0 22615.6 42381.9" />
<path d="M27930 42185
L22812 42185
" />
<path d="M28127.5 42381.9 A196.85 196.85 0.0 0 0 27930.6 42185" />
<path d="M28127 47500
L28127 42381
" />
<path d="M27930.6 47696.9 A196.85 196.85 0.0 0 0 28127.5 47500" />
<path d="M22812 47696
L27930 47696
" />
<path d="M22615.6 47500 A196.85 196.85 0.0 0 0 22812.5 47696.9" />
<path d="M22615 42381
L22615 47500
" />
<path d="M45312.5 27185 A196.85 196.85 0.0 0 0 45115.6 27381.9" />
<path d="M50430 27185
L45312 27185
" />
<path d="M50627.5 27381.9 A196.85 196.85 0.0 0 0 50430.6 27185" />
<path d="M50627 32500
L50627 27381
" />
<path d="M50430.6 32696.9 A196.85 196.85 0.0 0 0 50627.5 32500" />
<path d="M45312 32696
L50430 32696
" />
<path d="M45115.6 32500 A196.85 196.85 0.0 0 0 45312.5 32696.9" />
<path d="M45115 27381
L45115 32500
" />
<path d="M67812.5 42185 A196.85 196.85 0.0 0 0 67615.6 42381.9" />
<path d="M72930 42185
L67812 42185
" />
<path d="M73127.5 42381.9 A196.85 196.85 0.0 0 0 72930.6 42185" />
<path d="M73127 47500
L73127 42381
" />
<path d="M72930.6 47696.9 A196.85 196.85 0.0 0 0 73127.5 47500" />
<path d="M67812 47696
L72930 47696
" />
<path d="M67615.6 47500 A196.85 196.85 0.0 0 0 67812.5 47696.9" />
<path d="M67615 42381
L67615 47500
" />
<path d="M45312.5 34685 A196.85 196.85 0.0 0 0 45115.6 34881.9" />
<path d="M50430 34685
L45312 34685
" />
<path d="M50627.5 34881.9 A196.85 196.85 0.0 0 0 50430.6 34685" />
<path d="M50627 40000
L50627 34881
" />
<path d="M50430.6 40196.9 A196.85 196.85 0.0 0 0 50627.5 40000" />
<path d="M45312 40196
L50430 40196
" />
<path d="M45115.6 40000 A196.85 196.85 0.0 0 0 45312.5 40196.9" />
<path d="M45115 34881
L45115 40000
" />
<path d="M75312.5 27185 A196.85 196.85 0.0 0 0 75115.6 27381.9" />
<path d="M80430 27185
L75312 27185
" />
<path d="M80627.5 27381.9 A196.85 196.85 0.0 0 0 80430.6 27185" />
<path d="M80627 32500
L80627 27381
" />
<path d="M80430.6 32696.9 A196.85 196.85 0.0 0 0 80627.5 32500" />
<path d="M75312 32696
L80430 32696
" />
<path d="M75115.6 32500 A196.85 196.85 0.0 0 0 75312.5 32696.9" />
<path d="M75115 27381
L75115 32500
" />
<path d="M67812.5 27185 A196.85 196.85 0.0 0 0 67615.6 27381.9" />
<path d="M72930 27185
L67812 27185
" />
<path d="M73127.5 27381.9 A196.85 196.85 0.0 0 0 72930.6 27185" />
<path d="M73127 32500
L73127 27381
" />
<path d="M72930.6 32696.9 A196.85 196.85 0.0 0 0 73127.5 32500" />
<path d="M67812 32696
L72930 32696
" />
<path d="M67615.6 32500 A196.85 196.85 0.0 0 0 67812.5 32696.9" />
<path d="M67615 27381
L67615 32500
" />
<path d="M90312.5 34685 A196.85 196.85 0.0 0 0 90115.6 34881.9" />
<path d="M95430 34685
L90312 34685
" />
<path d="M95627.5 34881.9 A196.85 196.85 0.0 0 0 95430.6 34685" />
<path d="M95627 40000
L95627 34881
" />
<path d="M95430.6 40196.9 A196.85 196.85 0.0 0 0 95627.5 40000" />
<path d="M90312 40196
L95430 40196
" />
<path d="M90115.6 40000 A196.85 196.85 0.0 0 0 90312.5 40196.9" />
<path d="M90115 34881
L90115 40000
" />
<path d="M90312.5 42185 A196.85 196.85 0.0 0 0 90115.6 42381.9" />
<path d="M95430 42185
L90312 42185
" />
<path d="M95627.5 42381.9 A196.85 196.85 0.0 0 0 95430.6 42185" />
<path d="M95627 47500
L95627 42381
" />
<path d="M95430.6 47696.9 A196.85 196.85 0.0 0 0 95627.5 47500" />
<path d="M90312 47696
L95430 47696
" />
<path d="M90115.6 47500 A196.85 196.85 0.0 0 0 90312.5 47696.9" />
<path d="M90115 42381
L90115 47500
" />
<path d="M95627.5 27381.9 A196.85 196.85 0.0 0 0 95430.6 27185" />
<path d="M95627 32500
L95627 27381
" />
<path d="M95430.6 32696.9 A196.85 196.85 0.0 0 0 95627.5 32500" />
<path d="M90312 32696
L95430 32696
" />
<path d="M90115.6 32500 A196.85 196.85 0.0 0 0 90312.5 32696.9" />
<path d="M90115 27381
L90115 32500
" />
<path d="M90312.5 27185 A196.85 196.85 0.0 0 0 90115.6 27381.9" />
<path d="M95430 27185
L90312 27185
" />
<path d="M75312.5 34685 A196.85 196.85 0.0 0 0 75115.6 34881.9" />
<path d="M80430 34685
L75312 34685
" />
<path d="M80627.5 34881.9 A196.85 196.85 0.0 0 0 80430.6 34685" />
<path d="M80627 40000
L80627 34881
" />
<path d="M80430.6 40196.9 A196.85 196.85 0.0 0 0 80627.5 40000" />
<path d="M75312 40196
L80430 40196
" />
<path d="M75115.6 40000 A196.85 196.85 0.0 0 0 75312.5 40196.9" />
<path d="M75115 34881
L75115 40000
" />
<path d="M22812.5 27185 A196.85 196.85 0.0 0 0 22615.6 27381.9" />
<path d="M27930 27185
L22812 27185
" />
<path d="M28127.5 27381.9 A196.85 196.85 0.0 0 0 27930.6 27185" />
<path d="M28127 32500
L28127 27381
" />
<path d="M27930.6 32696.9 A196.85 196.85 0.0 0 0 28127.5 32500" />
<path d="M22812 32696
L27930 32696
" />
<path d="M22615.6 32500 A196.85 196.85 0.0 0 0 22812.5 32696.9" />
<path d="M22615 27381
L22615 32500
" />
<path d="M22812.5 34685 A196.85 196.85 0.0 0 0 22615.6 34881.9" />
<path d="M27930 34685
L22812 34685
" />
<path d="M28127.5 34881.9 A196.85 196.85 0.0 0 0 27930.6 34685" />
<path d="M28127 40000
L28127 34881
" />
<path d="M27930.6 40196.9 A196.85 196.85 0.0 0 0 28127.5 40000" />
<path d="M22812 40196
L27930 40196
" />
<path d="M22615.6 40000 A196.85 196.85 0.0 0 0 22812.5 40196.9" />
<path d="M22615 34881
L22615 40000
" />
<path d="M75312.5 42185 A196.85 196.85 0.0 0 0 75115.6 42381.9" />
<path d="M80430 42185
L75312 42185
" />
<path d="M80627.5 42381.9 A196.85 196.85 0.0 0 0 80430.6 42185" />
<path d="M80627 47500
L80627 42381
" />
<path d="M80430.6 47696.9 A196.85 196.85 0.0 0 0 80627.5 47500" />
<path d="M75312 47696
L80430 47696
" />
<path d="M75115.6 47500 A196.85 196.85 0.0 0 0 75312.5 47696.9" />
<path d="M75115 42381
L75115 47500
" />
<circle cx="81594.4" cy="47696.9" r="511.811" /> 
<path d="M82615.6 40000 A196.85 196.85 0.0 0 0 82812.5 40196.9" />
<path d="M82615 34881
L82615 40000
" />
<path d="M82812.5 34685 A196.85 196.85 0.0 0 0 82615.6 34881.9" />
<path d="M87930 34685
L82812 34685
" />
<path d="M88127.5 34881.9 A196.85 196.85 0.0 0 0 87930.6 34685" />
<path d="M88127 40000
L88127 34881
" />
<path d="M87930.6 40196.9 A196.85 196.85 0.0 0 0 88127.5 40000" />
<path d="M82812 40196
L87930 40196
" />
<path d="M82615.6 47500 A196.85 196.85 0.0 0 0 82812.5 47696.9" />
<path d="M82615 42381
L82615 47500
" />
<path d="M82812.5 42185 A196.85 196.85 0.0 0 0 82615.6 42381.9" />
<path d="M87930 42185
L82812 42185
" />
<path d="M88127.5 42381.9 A196.85 196.85 0.0 0 0 87930.6 42185" />
<path d="M88127 47500
L88127 42381
" />
<path d="M87930.6 47696.9 A196.85 196.85 0.0 0 0 88127.5 47500" />
<path d="M82812 47696
L87930 47696
" />
<path d="M52615.6 40000 A196.85 196.85 0.0 0 0 52812.5 40196.9" />
<path d="M52615 34881
L52615 40000
" />
<path d="M52812.5 34685 A196.85 196.85 0.0 0 0 52615.6 34881.9" />
<path d="M57930 34685
L52812 34685
" />
<path d="M58127.5 34881.9 A196.85 196.85 0.0 0 0 57930.6 34685" />
<path d="M58127 40000
L58127 34881
" />
<path d="M57930.6 40196.9 A196.85 196.85 0.0 0 0 58127.5 40000" />
<path d="M52812 40196
L57930 40196
" />
<path d="M52615.6 47500 A196.85 196.85 0.0 0 0 52812.5 47696.9" />
<path d="M52615 42381
L52615 47500
" />
<path d="M52812.5 42185 A196.85 196.85 0.0 0 0 52615.6 42381.9" />
<path d="M57930 42185
L52812 42185
" />
<path d="M58127.5 42381.9 A196.85 196.85 0.0 0 0 57930.6 42185" />
<path d="M58127 47500
L58127 42381
" />
<path d="M57930.6 47696.9 A196.85 196.85 0.0 0 0 58127.5 47500" />
<path d="M52812 47696
L57930 47696
" />
<path d="M65627 47500
L65627 42185
" />
<path d="M65430.6 47696.9 A196.85 196.85 0.0 0 0 65627.5 47500" />
<path d="M60312 47696
L65430 47696
" />
<path d="M60115.6 47500 A196.85 196.85 0.0 0 0 60312.5 47696.9" />
<path d="M60115 42381
L60115 47500
" />
<path d="M60312.5 42185 A196.85 196.85 0.0 0 0 60115.6 42381.9" />
<path d="M65627 42185
L60312 42185
" />
<path d="M65627.5 34881.9 A196.85 196.85 0.0 0 0 65430.6 34685" />
<path d="M65627 40000
L65627 34881
" />
<path d="M65430.6 40196.9 A196.85 196.85 0.0 0 0 65627.5 40000" />
<path d="M60312 40196
L65430 40196
" />
<path d="M60115.6 40000 A196.85 196.85 0.0 0 0 60312.5 40196.9" />
<path d="M60115 34881
L60115 40000
" />
<path d="M60312.5 34685 A196.85 196.85 0.0 0 0 60115.6 34881.9" />
<path d="M65430 34685
L60312 34685
" />
<path d="M65627.5 27381.9 A196.85 196.85 0.0 0 0 65430.6 27185" />
<path d="M65627 32500
L65627 27381
" />
<path d="M65430.6 32696.9 A196.85 196.85 0.0 0 0 65627.5 32500" />
<path d="M60312 32696
L65430 32696
" />
<path d="M60115.6 32500 A196.85 196.85 0.0 0 0 60312.5 32696.9" />
<path d="M60115 27381
L60115 32500
" />
<path d="M60312.5 27185 A196.85 196.85 0.0 0 0 60115.6 27381.9" />
<path d="M65430 27185
L60312 27185
" />
<path d="M35627.5 42381.9 A196.85 196.85 0.0 0 0 35430.6 42185" />
<path d="M35627 47500
L35627 42381
" />
<path d="M35430.6 47696.9 A196.85 196.85 0.0 0 0 35627.5 47500" />
<path d="M30312 47696
L35430 47696
" />
<path d="M30115.6 47500 A196.85 196.85 0.0 0 0 30312.5 47696.9" />
<path d="M30115 42381
L30115 47500
" />
<path d="M30312.5 42185 A196.85 196.85 0.0 0 0 30115.6 42381.9" />
<path d="M35430 42185
L30312 42185
" />
<path d="M35627.5 34881.9 A196.85 196.85 0.0 0 0 35430.6 34685" />
<path d="M35627 40000
L35627 34881
" />
<path d="M35430.6 40196.9 A196.85 196.85 0.0 0 0 35627.5 40000" />
<path d="M30312 40196
L35430 40196
" />
<path d="M30115.6 40000 A196.85 196.85 0.0 0 0 30312.5 40196.9" />
<path d="M30115 34881
L30115 40000
" />
<path d="M30312.5 34685 A196.85 196.85 0.0 0 0 30115.6 34881.9" />
<path d="M35430 34685
L30312 34685
" />
<path d="M35627.5 27381.9 A196.85 196.85 0.0 0 0 35430.6 27185" />
<path d="M35627 32500
L35627 27381
" />
<path d="M35430.6 32696.9 A196.85 196.85 0.0 0 0 35627.5 32500" />
<path d="M30312 32696
L35430 32696
" />
<path d="M30115.6 32500 A196.85 196.85 0.0 0 0 30312.5 32696.9" />
<path d="M30115 27381
L30115 32500
" />
<path d="M30312.5 27185 A196.85 196.85 0.0 0 0 30115.6 27381.9" />
<path d="M35430 27185
L30312 27185
" />
<path d="M33555 25196
L27500 25196
" />
<path d="M33555.6 25196.9 A196.85 196.85 0.0 0 0 33752.5 25000" />
<path d="M33752 19881
L33752 25000
" />
<path d="M96513.3 26496.1 A196.85 196.85 0.0 0 0 96316.4 26299.2" />
<path d="M91967 26299
L96316 26299
" />
<path d="M91770.4 26102.4 A196.85 196.85 0.0 0 0 91967.2 26299.2" />
<path d="M33752.5 19881.9 A196.85 196.85 0.0 0 0 33555.6 19685" />
<path d="M27500 19685
L33555 19685
" />
<path d="M27500 19685 A196.85 196.85 0.0 0 0 27303.1 19881.9" />
<path d="M27303 25000
L27303 19881
" />
<path d="M27303.1 25000 A196.85 196.85 0.0 0 0 27500 25196.9" />
<path d="M56515.9 25590.6 A196.85 196.85 0.0 0 0 56712.8 25393.7" />
<path d="M54252 25590
L56515 25590
" />
<path d="M54055.3 25393.7 A196.85 196.85 0.0 0 0 54252.2 25590.6" />
<path d="M53440 19881.9 A196.85 196.85 0.0 0 0 53636.8 20078.7" />
<path d="M56168 20078
L53636 20078
" />
<path d="M56562.5 19685 A196.85 196.85 0.0 0 0 56365.6 19881.9" />
<path d="M61680 19685
L56562 19685
" />
<path d="M61877.5 19881.9 A196.85 196.85 0.0 0 0 61680.6 19685" />
<path d="M63668 20078
L62074 20078
" />
<path d="M63668.8 20078.7 A196.85 196.85 0.0 0 0 63865.6 19881.9" />
<path d="M91770 18996
L91770 26102
" />
<path d="M91770.4 18996.1 A196.85 196.85 0.0 0 0 91573.5 18799.2" />
<path d="M26669 18799
L91573 18799
" />
<path d="M41252.5 19881.9 A196.85 196.85 0.0 0 0 41055.6 19685" />
<path d="M41252 25000
L41252 19881
" />
<path d="M41055.6 25196.9 A196.85 196.85 0.0 0 0 41252.5 25000" />
<path d="M40568.4 25590.6 A196.85 196.85 0.0 0 0 40765.3 25393.7" />
<path d="M38304 25590
L40568 25590
" />
<path d="M38107.8 25393.7 A196.85 196.85 0.0 0 0 38304.6 25590.6" />
<path d="M35937 25196
L37910 25196
" />
<path d="M35740.6 25000 A196.85 196.85 0.0 0 0 35937.5 25196.9" />
<path d="M35740 19880
L35740 25000
" />
<path d="M41055 19685
L35937 19684
" />
<path d="M79938.5 25590.6 A196.85 196.85 0.0 0 0 80135.3 25393.7" />
<path d="M77674 25590
L79938 25590
" />
<circle cx="34746.6" cy="19570.9" r="511.811" /> 
<g >
</g>
</g> 
</svg>
